<svg xmlns="http://www.w3.org/2000/svg" xmlns:xlink="http://www.w3.org/1999/xlink" version="1.1" width="256" height="256" viewBox="0 0 256 256" xml:space="preserve">
<g style="stroke: none; stroke-width: 0; stroke-dasharray: none; stroke-linecap: butt; stroke-linejoin: miter; stroke-miterlimit: 10; fill: none; fill-rule: nonzero; opacity: 1;" transform="translate(1.4065934065934016 1.4065934065934016) scale(2.81 2.81)">
	<circle cx="45.002" cy="12.692" r="11.252" style="stroke: none; stroke-width: 1; stroke-dasharray: none; stroke-linecap: butt; stroke-linejoin: miter; stroke-miterlimit: 10; fill: rgb(242,54,54); fill-rule: nonzero; opacity: 1;" transform="  matrix(1 0 0 1 0 0) "/>
	<path d="M 53.711 26.187 c -0.587 -2.288 -2.99 -3.529 -5.235 -2.795 c -1.094 0.358 -2.262 0.551 -3.476 0.551 s -2.382 -0.194 -3.476 -0.551 c -2.245 -0.734 -4.649 0.506 -5.235 2.795 l -7.609 29.687 c -0.133 0.518 -0.184 1.061 -0.085 1.587 c 1.779 9.512 31.034 9.512 32.813 0 c 0.098 -0.526 0.047 -1.069 -0.085 -1.587 L 53.711 26.187 z" style="stroke: none; stroke-width: 1; stroke-dasharray: none; stroke-linecap: butt; stroke-linejoin: miter; stroke-miterlimit: 10; fill: rgb(198,33,33); fill-rule: nonzero; opacity: 1;" transform=" matrix(1 0 0 1 0 0) " stroke-linecap="round"/>
	<path d="M 45 23.943 c -2.845 0 -5.436 -1.064 -7.417 -2.806 l -7.979 31.127 c 4.99 6.595 25.802 6.595 30.792 0 l -7.979 -31.127 C 50.436 22.879 47.845 23.943 45 23.943 z" style="stroke: none; stroke-width: 1; stroke-dasharray: none; stroke-linecap: butt; stroke-linejoin: miter; stroke-miterlimit: 10; fill: rgb(255,209,56); fill-rule: nonzero; opacity: 1;" transform=" matrix(1 0 0 1 0 0) " stroke-linecap="round"/>
	<path d="M 45 23.943 c -2.845 0 -5.436 -1.064 -7.417 -2.806 l -7.979 31.127 c 4.99 6.595 25.802 6.595 30.792 0 l -7.979 -31.127 C 50.436 22.879 47.845 23.943 45 23.943 z" style="stroke: none; stroke-width: 1; stroke-dasharray: none; stroke-linecap: butt; stroke-linejoin: miter; stroke-miterlimit: 10; fill: rgb(242,54,54); fill-rule: nonzero; opacity: 1;" transform=" matrix(1 0 0 1 0 0) " stroke-linecap="round"/>
	<path d="M 36.98 47.655 l 6.121 -23.88 c -2.093 -0.359 -3.988 -1.293 -5.518 -2.638 l -7.979 31.127 c 4.99 6.595 25.802 6.595 30.792 0 l -1.162 -4.533 C 51.149 51.007 40.384 52.154 36.98 47.655 z" style="stroke: none; stroke-width: 1; stroke-dasharray: none; stroke-linecap: butt; stroke-linejoin: miter; stroke-miterlimit: 10; fill: rgb(222,43,43); fill-rule: nonzero; opacity: 1;" transform=" matrix(1 0 0 1 0 0) " stroke-linecap="round"/>
	<path d="M 49.61 19.334 c -6.214 0 -11.252 -5.038 -11.252 -11.252 c 0 -1.921 0.484 -3.728 1.332 -5.31 c -3.536 1.897 -5.942 5.626 -5.942 9.919 c 0 6.214 5.037 11.252 11.252 11.252 c 4.293 0 8.023 -2.406 9.919 -5.942 C 53.337 18.85 51.531 19.334 49.61 19.334 z" style="stroke: none; stroke-width: 1; stroke-dasharray: none; stroke-linecap: butt; stroke-linejoin: miter; stroke-miterlimit: 10; fill: rgb(222,43,43); fill-rule: nonzero; opacity: 1;" transform=" matrix(1 0 0 1 0 0) " stroke-linecap="round"/>
	<circle cx="73.512" cy="28.222" r="11.252" style="stroke: none; stroke-width: 1; stroke-dasharray: none; stroke-linecap: butt; stroke-linejoin: miter; stroke-miterlimit: 10; fill: rgb(255,209,56); fill-rule: nonzero; opacity: 1;" transform="  matrix(1 0 0 1 0 0) "/>
	<path d="M 80.926 36.666 c -1.981 1.741 -4.572 2.806 -7.417 2.806 c -2.845 0 -5.436 -1.064 -7.417 -2.806 l -9.074 35.399 c 0 10.744 32.982 10.744 32.982 0 L 80.926 36.666 z" style="stroke: none; stroke-width: 1; stroke-dasharray: none; stroke-linecap: butt; stroke-linejoin: miter; stroke-miterlimit: 10; fill: rgb(198,152,0); fill-rule: nonzero; opacity: 1;" transform=" matrix(1 0 0 1 0 0) " stroke-linecap="round"/>
	<path d="M 73.509 39.472 c -2.845 0 -5.436 -1.064 -7.417 -2.806 l -7.979 31.127 c 4.99 6.595 25.802 6.595 30.792 0 l -7.979 -31.127 C 78.945 38.408 76.354 39.472 73.509 39.472 z" style="stroke: none; stroke-width: 1; stroke-dasharray: none; stroke-linecap: butt; stroke-linejoin: miter; stroke-miterlimit: 10; fill: rgb(255,209,56); fill-rule: nonzero; opacity: 1;" transform=" matrix(1 0 0 1 0 0) " stroke-linecap="round"/>
	<path d="M 73.509 39.472 c -2.845 0 -5.436 -1.064 -7.417 -2.806 l -7.979 31.127 c 4.99 6.595 25.802 6.595 30.792 0 l -7.979 -31.127 C 78.945 38.408 76.354 39.472 73.509 39.472 z" style="stroke: none; stroke-width: 1; stroke-dasharray: none; stroke-linecap: butt; stroke-linejoin: miter; stroke-miterlimit: 10; fill: rgb(255,209,56); fill-rule: nonzero; opacity: 1;" transform=" matrix(1 0 0 1 0 0) " stroke-linecap="round"/>
	<path d="M 65.489 63.184 l 6.121 -23.88 c -2.093 -0.359 -3.988 -1.293 -5.518 -2.638 l -7.979 31.127 c 4.99 6.595 25.802 6.595 30.792 0 l -1.162 -4.533 C 79.659 66.536 68.893 67.683 65.489 63.184 z" style="stroke: none; stroke-width: 1; stroke-dasharray: none; stroke-linecap: butt; stroke-linejoin: miter; stroke-miterlimit: 10; fill: rgb(233,184,23); fill-rule: nonzero; opacity: 1;" transform=" matrix(1 0 0 1 0 0) " stroke-linecap="round"/>
	<path d="M 78.119 34.862 c -6.214 0 -11.252 -5.038 -11.252 -11.252 c 0 -1.921 0.484 -3.728 1.332 -5.31 c -3.536 1.897 -5.942 5.626 -5.942 9.919 c 0 6.214 5.037 11.252 11.252 11.252 c 4.293 0 8.023 -2.406 9.919 -5.942 C 81.847 34.379 80.04 34.862 78.119 34.862 z" style="stroke: none; stroke-width: 1; stroke-dasharray: none; stroke-linecap: butt; stroke-linejoin: miter; stroke-miterlimit: 10; fill: rgb(233,184,23); fill-rule: nonzero; opacity: 1;" transform=" matrix(1 0 0 1 0 0) " stroke-linecap="round"/>
	<circle cx="16.492" cy="28.222" r="11.252" style="stroke: none; stroke-width: 1; stroke-dasharray: none; stroke-linecap: butt; stroke-linejoin: miter; stroke-miterlimit: 10; fill: rgb(53,173,219); fill-rule: nonzero; opacity: 1;" transform="  matrix(1 0 0 1 0 0) "/>
	<path d="M 23.908 36.666 c -1.981 1.741 -4.572 2.806 -7.417 2.806 s -5.436 -1.064 -7.417 -2.806 L 0 72.065 c 0 10.744 32.982 10.744 32.982 0 L 23.908 36.666 z" style="stroke: none; stroke-width: 1; stroke-dasharray: none; stroke-linecap: butt; stroke-linejoin: miter; stroke-miterlimit: 10; fill: rgb(27,125,163); fill-rule: nonzero; opacity: 1;" transform=" matrix(1 0 0 1 0 0) " stroke-linecap="round"/>
	<path d="M 16.491 39.472 c -2.845 0 -5.436 -1.064 -7.417 -2.806 L 1.095 67.793 c 4.99 6.595 25.802 6.595 30.792 0 l -7.979 -31.127 C 21.927 38.408 19.336 39.472 16.491 39.472 z" style="stroke: none; stroke-width: 1; stroke-dasharray: none; stroke-linecap: butt; stroke-linejoin: miter; stroke-miterlimit: 10; fill: rgb(255,209,56); fill-rule: nonzero; opacity: 1;" transform=" matrix(1 0 0 1 0 0) " stroke-linecap="round"/>
	<path d="M 16.491 39.472 c -2.845 0 -5.436 -1.064 -7.417 -2.806 L 1.095 67.793 c 4.99 6.595 25.802 6.595 30.792 0 l -7.979 -31.127 C 21.927 38.408 19.336 39.472 16.491 39.472 z" style="stroke: none; stroke-width: 1; stroke-dasharray: none; stroke-linecap: butt; stroke-linejoin: miter; stroke-miterlimit: 10; fill: rgb(53,173,219); fill-rule: nonzero; opacity: 1;" transform=" matrix(1 0 0 1 0 0) " stroke-linecap="round"/>
	<path d="M 8.471 63.184 l 6.121 -23.88 c -2.093 -0.359 -3.988 -1.293 -5.518 -2.638 L 1.095 67.793 c 4.99 6.595 25.802 6.595 30.792 0 l -1.162 -4.533 C 22.64 66.536 11.874 67.683 8.471 63.184 z" style="stroke: none; stroke-width: 1; stroke-dasharray: none; stroke-linecap: butt; stroke-linejoin: miter; stroke-miterlimit: 10; fill: rgb(40,153,196); fill-rule: nonzero; opacity: 1;" transform=" matrix(1 0 0 1 0 0) " stroke-linecap="round"/>
	<path d="M 21.101 34.862 c -6.214 0 -11.252 -5.038 -11.252 -11.252 c 0 -1.921 0.484 -3.728 1.332 -5.31 c -3.536 1.897 -5.942 5.626 -5.942 9.919 c 0 6.214 5.037 11.252 11.252 11.252 c 4.293 0 8.023 -2.406 9.919 -5.942 C 24.828 34.379 23.021 34.862 21.101 34.862 z" style="stroke: none; stroke-width: 1; stroke-dasharray: none; stroke-linecap: butt; stroke-linejoin: miter; stroke-miterlimit: 10; fill: rgb(40,153,196); fill-rule: nonzero; opacity: 1;" transform=" matrix(1 0 0 1 0 0) " stroke-linecap="round"/>
	<path d="M 66.863 87.952 l -20.829 -8.981 c -2.038 -0.879 -2.977 -3.243 -2.099 -5.281 l 8.981 -20.829 c 0.879 -2.038 3.243 -2.977 5.281 -2.099 l 20.829 8.981 c 2.038 0.879 2.977 3.243 2.099 5.281 l -8.981 20.829 C 71.265 87.891 68.9 88.831 66.863 87.952 z" style="stroke: none; stroke-width: 1; stroke-dasharray: none; stroke-linecap: butt; stroke-linejoin: miter; stroke-miterlimit: 10; fill: rgb(204,204,204); fill-rule: nonzero; opacity: 1;" transform=" matrix(1 0 0 1 0 0) " stroke-linecap="round"/>
	<path d="M 51.821 76.671 c -2.038 -0.879 -2.977 -3.243 -2.099 -5.281 l 8.828 -20.475 l -0.354 -0.153 c -2.038 -0.879 -4.402 0.061 -5.281 2.099 l -8.981 20.829 c -0.879 2.038 0.061 4.402 2.099 5.281 l 20.829 8.981 c 2.038 0.879 4.402 -0.061 5.281 -2.099 l 0.153 -0.354 L 51.821 76.671 z" style="stroke: none; stroke-width: 1; stroke-dasharray: none; stroke-linecap: butt; stroke-linejoin: miter; stroke-miterlimit: 10; fill: rgb(178,178,178); fill-rule: nonzero; opacity: 1;" transform=" matrix(1 0 0 1 0 0) " stroke-linecap="round"/>
	<path d="M 62.53 70.86 c -0.4 0 -0.78 -0.159 -1.061 -0.439 c -0.279 -0.29 -0.439 -0.66 -0.439 -1.061 c 0 -0.1 0.01 -0.199 0.03 -0.3 c 0.02 -0.09 0.05 -0.189 0.08 -0.279 c 0.039 -0.091 0.09 -0.171 0.14 -0.261 c 0.06 -0.08 0.12 -0.16 0.189 -0.22 c 0.07 -0.07 0.141 -0.14 0.23 -0.19 c 0.08 -0.05 0.16 -0.1 0.26 -0.14 c 0.09 -0.04 0.181 -0.07 0.28 -0.08 c 0.479 -0.1 1 0.061 1.35 0.41 c 0.07 0.06 0.13 0.14 0.19 0.22 c 0.05 0.09 0.1 0.17 0.14 0.261 c 0.03 0.09 0.061 0.189 0.08 0.279 c 0.021 0.101 0.03 0.2 0.03 0.3 c 0 0.4 -0.16 0.771 -0.44 1.061 C 63.299 70.701 62.929 70.86 62.53 70.86 z" style="stroke: none; stroke-width: 1; stroke-dasharray: none; stroke-linecap: butt; stroke-linejoin: miter; stroke-miterlimit: 10; fill: rgb(114,114,114); fill-rule: nonzero; opacity: 1;" transform=" matrix(1 0 0 1 0 0) " stroke-linecap="round"/>
	<path d="M 65.81 79.11 c -0.2 0 -0.391 -0.039 -0.58 -0.119 c -0.181 -0.07 -0.34 -0.181 -0.48 -0.32 c -0.14 -0.15 -0.25 -0.311 -0.33 -0.49 c -0.069 -0.18 -0.109 -0.37 -0.109 -0.57 c 0 -0.1 0.01 -0.199 0.029 -0.3 c 0.021 -0.09 0.051 -0.189 0.08 -0.279 c 0.04 -0.091 0.09 -0.171 0.141 -0.261 c 0.06 -0.08 0.119 -0.149 0.189 -0.22 s 0.141 -0.14 0.23 -0.19 c 0.08 -0.05 0.16 -0.1 0.25 -0.14 s 0.189 -0.07 0.279 -0.08 c 0.2 -0.04 0.4 -0.04 0.591 0 c 0.1 0.01 0.189 0.04 0.279 0.08 s 0.181 0.09 0.261 0.14 c 0.079 0.051 0.159 0.12 0.229 0.19 c 0.28 0.28 0.44 0.66 0.44 1.06 c 0 0.2 -0.04 0.391 -0.12 0.57 c -0.07 0.18 -0.181 0.34 -0.32 0.49 c -0.14 0.14 -0.31 0.25 -0.49 0.32 C 66.2 79.071 66.009 79.11 65.81 79.11 z" style="stroke: none; stroke-width: 1; stroke-dasharray: none; stroke-linecap: butt; stroke-linejoin: miter; stroke-miterlimit: 10; fill: rgb(114,114,114); fill-rule: nonzero; opacity: 1;" transform=" matrix(1 0 0 1 0 0) " stroke-linecap="round"/>
	<path d="M 59.249 62.61 c -0.399 0 -0.78 -0.159 -1.06 -0.439 c -0.141 -0.14 -0.25 -0.311 -0.33 -0.49 c -0.07 -0.18 -0.11 -0.37 -0.11 -0.57 c 0 -0.1 0.01 -0.199 0.03 -0.3 c 0.02 -0.09 0.05 -0.189 0.09 -0.279 c 0.03 -0.091 0.08 -0.181 0.13 -0.261 c 0.061 -0.08 0.12 -0.149 0.19 -0.22 c 0.069 -0.07 0.149 -0.14 0.229 -0.19 c 0.08 -0.05 0.17 -0.1 0.26 -0.14 c 0.091 -0.03 0.181 -0.06 0.28 -0.08 c 0.19 -0.04 0.391 -0.04 0.58 0 c 0.101 0.021 0.19 0.05 0.28 0.08 c 0.09 0.04 0.18 0.09 0.26 0.14 c 0.08 0.051 0.16 0.12 0.23 0.19 c 0.069 0.07 0.13 0.14 0.189 0.22 c 0.05 0.08 0.101 0.17 0.141 0.261 c 0.029 0.09 0.06 0.189 0.079 0.279 c 0.021 0.101 0.03 0.2 0.03 0.3 c 0 0.2 -0.04 0.391 -0.109 0.57 c -0.08 0.18 -0.19 0.34 -0.33 0.49 c -0.141 0.14 -0.301 0.25 -0.49 0.32 C 59.64 62.571 59.45 62.61 59.249 62.61 z" style="stroke: none; stroke-width: 1; stroke-dasharray: none; stroke-linecap: butt; stroke-linejoin: miter; stroke-miterlimit: 10; fill: rgb(114,114,114); fill-rule: nonzero; opacity: 1;" transform=" matrix(1 0 0 1 0 0) " stroke-linecap="round"/>
	<path d="M 44.467 88.56 H 21.784 c -2.219 0 -4.018 -1.799 -4.018 -4.018 V 61.859 c 0 -2.219 1.799 -4.018 4.018 -4.018 h 22.683 c 2.219 0 4.018 1.799 4.018 4.018 v 22.683 C 48.485 86.761 46.686 88.56 44.467 88.56 z" style="stroke: none; stroke-width: 1; stroke-dasharray: none; stroke-linecap: butt; stroke-linejoin: miter; stroke-miterlimit: 10; fill: rgb(204,204,204); fill-rule: nonzero; opacity: 1;" transform=" matrix(1 0 0 1 0 0) " stroke-linecap="round"/>
	<path d="M 26.188 84.156 c -2.219 0 -4.018 -1.799 -4.018 -4.018 V 57.841 h -0.386 c -2.219 0 -4.018 1.799 -4.018 4.018 v 22.683 c 0 2.219 1.799 4.018 4.018 4.018 h 22.683 c 2.219 0 4.018 -1.799 4.018 -4.018 v -0.386 H 26.188 z" style="stroke: none; stroke-width: 1; stroke-dasharray: none; stroke-linecap: butt; stroke-linejoin: miter; stroke-miterlimit: 10; fill: rgb(178,178,178); fill-rule: nonzero; opacity: 1;" transform=" matrix(1 0 0 1 0 0) " stroke-linecap="round"/>
	<path d="M 33.13 74.699 c -0.2 0 -0.4 -0.04 -0.58 -0.109 c -0.18 -0.08 -0.34 -0.19 -0.49 -0.33 c -0.28 -0.28 -0.43 -0.66 -0.43 -1.061 c 0 -0.39 0.16 -0.78 0.43 -1.06 c 0.07 -0.07 0.15 -0.13 0.23 -0.19 c 0.08 -0.05 0.17 -0.1 0.26 -0.13 c 0.09 -0.04 0.19 -0.07 0.28 -0.09 c 0.2 -0.04 0.39 -0.04 0.59 0 c 0.09 0.02 0.19 0.05 0.28 0.09 c 0.09 0.03 0.18 0.08 0.26 0.13 c 0.08 0.061 0.16 0.12 0.23 0.19 c 0.28 0.279 0.44 0.67 0.44 1.06 c 0 0.4 -0.16 0.78 -0.44 1.061 c -0.15 0.14 -0.31 0.25 -0.49 0.33 C 33.519 74.659 33.32 74.699 33.13 74.699 z" style="stroke: none; stroke-width: 1; stroke-dasharray: none; stroke-linecap: butt; stroke-linejoin: miter; stroke-miterlimit: 10; fill: rgb(114,114,114); fill-rule: nonzero; opacity: 1;" transform=" matrix(1 0 0 1 0 0) " stroke-linecap="round"/>
	<path d="M 39.4 80.98 c -0.4 0 -0.77 -0.16 -1.06 -0.44 c -0.28 -0.29 -0.44 -0.66 -0.44 -1.06 c 0 -0.101 0.01 -0.2 0.03 -0.3 c 0.02 -0.09 0.05 -0.19 0.09 -0.28 c 0.03 -0.09 0.08 -0.17 0.14 -0.26 c 0.05 -0.08 0.11 -0.15 0.18 -0.221 c 0.35 -0.35 0.87 -0.51 1.36 -0.409 c 0.09 0.02 0.19 0.04 0.28 0.08 c 0.09 0.039 0.17 0.09 0.26 0.14 c 0.08 0.06 0.16 0.12 0.22 0.189 c 0.07 0.07 0.14 0.141 0.19 0.221 c 0.05 0.09 0.1 0.17 0.14 0.26 s 0.06 0.19 0.08 0.28 c 0.02 0.1 0.03 0.199 0.03 0.3 c 0 0.399 -0.15 0.78 -0.44 1.06 c -0.14 0.141 -0.3 0.25 -0.48 0.32 C 39.8 80.94 39.599 80.98 39.4 80.98 z" style="stroke: none; stroke-width: 1; stroke-dasharray: none; stroke-linecap: butt; stroke-linejoin: miter; stroke-miterlimit: 10; fill: rgb(114,114,114); fill-rule: nonzero; opacity: 1;" transform=" matrix(1 0 0 1 0 0) " stroke-linecap="round"/>
	<path d="M 26.849 68.419 c -0.2 0 -0.39 -0.04 -0.58 -0.109 c -0.18 -0.08 -0.34 -0.19 -0.48 -0.33 c -0.29 -0.28 -0.44 -0.66 -0.44 -1.061 c 0 -0.09 0.01 -0.189 0.03 -0.29 c 0.02 -0.09 0.05 -0.189 0.08 -0.279 c 0.04 -0.09 0.09 -0.181 0.14 -0.26 c 0.06 -0.08 0.12 -0.16 0.19 -0.23 c 0.55 -0.55 1.56 -0.56 2.12 0 c 0.07 0.07 0.13 0.15 0.19 0.23 c 0.05 0.079 0.1 0.17 0.13 0.26 c 0.04 0.09 0.07 0.189 0.09 0.279 c 0.02 0.101 0.03 0.2 0.03 0.29 c 0 0.4 -0.16 0.78 -0.44 1.061 c -0.14 0.14 -0.31 0.25 -0.49 0.33 C 27.24 68.379 27.05 68.419 26.849 68.419 z" style="stroke: none; stroke-width: 1; stroke-dasharray: none; stroke-linecap: butt; stroke-linejoin: miter; stroke-miterlimit: 10; fill: rgb(114,114,114); fill-rule: nonzero; opacity: 1;" transform=" matrix(1 0 0 1 0 0) " stroke-linecap="round"/>
	<path d="M 26.849 80.98 c -0.2 0 -0.39 -0.04 -0.58 -0.12 c -0.18 -0.07 -0.34 -0.18 -0.48 -0.32 c -0.28 -0.279 -0.44 -0.66 -0.44 -1.06 c 0 -0.101 0.01 -0.2 0.03 -0.3 c 0.02 -0.09 0.05 -0.19 0.08 -0.28 c 0.04 -0.09 0.09 -0.17 0.14 -0.26 c 0.06 -0.08 0.12 -0.15 0.19 -0.221 c 0.56 -0.56 1.56 -0.56 2.12 0 c 0.07 0.07 0.13 0.141 0.19 0.221 c 0.05 0.09 0.1 0.17 0.13 0.26 c 0.04 0.09 0.07 0.19 0.09 0.28 c 0.02 0.1 0.03 0.199 0.03 0.3 c 0 0.399 -0.16 0.77 -0.44 1.06 C 27.63 80.82 27.249 80.98 26.849 80.98 z" style="stroke: none; stroke-width: 1; stroke-dasharray: none; stroke-linecap: butt; stroke-linejoin: miter; stroke-miterlimit: 10; fill: rgb(114,114,114); fill-rule: nonzero; opacity: 1;" transform=" matrix(1 0 0 1 0 0) " stroke-linecap="round"/>
	<path d="M 39.4 68.419 c -0.2 0 -0.39 -0.04 -0.57 -0.109 c -0.18 -0.08 -0.35 -0.19 -0.49 -0.33 c -0.28 -0.28 -0.44 -0.66 -0.44 -1.061 c 0 -0.09 0.01 -0.189 0.03 -0.29 c 0.02 -0.09 0.05 -0.189 0.09 -0.279 s 0.08 -0.181 0.14 -0.26 c 0.05 -0.08 0.11 -0.16 0.18 -0.23 c 0.07 -0.07 0.15 -0.13 0.23 -0.18 c 0.08 -0.061 0.17 -0.101 0.26 -0.141 c 0.09 -0.04 0.18 -0.069 0.28 -0.09 c 0.49 -0.09 1.01 0.061 1.35 0.41 c 0.07 0.07 0.13 0.15 0.19 0.23 c 0.05 0.079 0.1 0.17 0.14 0.26 s 0.07 0.18 0.08 0.279 c 0.02 0.101 0.03 0.2 0.03 0.29 c 0 0.4 -0.15 0.78 -0.44 1.061 c -0.14 0.14 -0.3 0.25 -0.48 0.33 C 39.8 68.379 39.599 68.419 39.4 68.419 z" style="stroke: none; stroke-width: 1; stroke-dasharray: none; stroke-linecap: butt; stroke-linejoin: miter; stroke-miterlimit: 10; fill: rgb(114,114,114); fill-rule: nonzero; opacity: 1;" transform=" matrix(1 0 0 1 0 0) " stroke-linecap="round"/>
</g>
</svg>